<mxfile host="65bd71144e">
    <diagram name="Page-1" id="58cdce13-f638-feb5-8d6f-7d28b1aa9fa0">
        <mxGraphModel dx="1141" dy="626" grid="1" gridSize="10" guides="1" tooltips="1" connect="1" arrows="1" fold="1" page="1" pageScale="1" pageWidth="1100" pageHeight="850" background="none" math="0" shadow="0">
            <root>
                <mxCell id="0"/>
                <mxCell id="1" parent="0"/>
                <mxCell id="22" value="Sistema para la gestion de inscripciones a los cursos" style="swimlane;startSize=0;fillColor=#d0cee2;strokeColor=#56517e;" parent="1" vertex="1">
                    <mxGeometry x="230" y="20" width="540" height="620" as="geometry"/>
                </mxCell>
                <mxCell id="80" style="edgeStyle=none;html=1;entryX=0;entryY=0.5;entryDx=0;entryDy=0;" edge="1" parent="22" source="13" target="78">
                    <mxGeometry relative="1" as="geometry"/>
                </mxCell>
                <mxCell id="13" value="consultar informacion de la comunidad" style="ellipse;whiteSpace=wrap;html=1;" parent="22" vertex="1">
                    <mxGeometry x="30" y="510" width="160" height="100" as="geometry"/>
                </mxCell>
                <mxCell id="9" value="Actualizar" style="ellipse;whiteSpace=wrap;html=1;" parent="22" vertex="1">
                    <mxGeometry x="310" y="110" width="100" height="50" as="geometry"/>
                </mxCell>
                <mxCell id="10" value="Eliminar" style="ellipse;whiteSpace=wrap;html=1;" parent="22" vertex="1">
                    <mxGeometry x="380" y="190" width="100" height="50" as="geometry"/>
                </mxCell>
                <mxCell id="5" value="registrar curso" style="ellipse;whiteSpace=wrap;html=1;" parent="22" vertex="1">
                    <mxGeometry x="70" y="160" width="120" height="80" as="geometry"/>
                </mxCell>
                <mxCell id="8" value="" style="endArrow=none;dashed=1;html=1;dashPattern=1 3;strokeWidth=2;entryX=1;entryY=0.5;entryDx=0;entryDy=0;exitX=0;exitY=0.5;exitDx=0;exitDy=0;" parent="22" source="9" target="5" edge="1">
                    <mxGeometry width="50" height="50" relative="1" as="geometry">
                        <mxPoint x="210" y="100" as="sourcePoint"/>
                        <mxPoint x="100" y="150" as="targetPoint"/>
                        <Array as="points"/>
                    </mxGeometry>
                </mxCell>
                <mxCell id="12" value="" style="endArrow=none;dashed=1;html=1;dashPattern=1 3;strokeWidth=2;entryX=1;entryY=1;entryDx=0;entryDy=0;exitX=0;exitY=0.5;exitDx=0;exitDy=0;" parent="22" source="10" target="5" edge="1">
                    <mxGeometry width="50" height="50" relative="1" as="geometry">
                        <mxPoint x="220" y="100" as="sourcePoint"/>
                        <mxPoint x="180.00000000000114" y="80" as="targetPoint"/>
                        <Array as="points">
                            <mxPoint x="340" y="190"/>
                        </Array>
                    </mxGeometry>
                </mxCell>
                <mxCell id="36" value="Iniciar de session" style="ellipse;whiteSpace=wrap;html=1;" parent="22" vertex="1">
                    <mxGeometry x="30" y="280" width="120" height="80" as="geometry"/>
                </mxCell>
                <mxCell id="38" value="verificar contracena" style="ellipse;whiteSpace=wrap;html=1;" parent="22" vertex="1">
                    <mxGeometry x="280" y="250" width="100" height="50" as="geometry"/>
                </mxCell>
                <mxCell id="39" value="desplegar error" style="ellipse;whiteSpace=wrap;html=1;" parent="22" vertex="1">
                    <mxGeometry x="400" y="320" width="100" height="50" as="geometry"/>
                </mxCell>
                <mxCell id="56" value="&amp;lt;&amp;lt;Include&amp;gt;&amp;gt;" style="endArrow=block;dashed=1;endFill=0;endSize=12;html=1;exitX=1;exitY=0;exitDx=0;exitDy=0;entryX=0;entryY=0.5;entryDx=0;entryDy=0;" parent="22" source="36" target="38" edge="1">
                    <mxGeometry width="160" relative="1" as="geometry">
                        <mxPoint x="-90" y="370" as="sourcePoint"/>
                        <mxPoint x="70" y="370" as="targetPoint"/>
                        <Array as="points"/>
                    </mxGeometry>
                </mxCell>
                <mxCell id="57" value="&amp;lt;&amp;lt;Extends&amp;gt;&amp;gt;" style="endArrow=block;dashed=1;endFill=0;endSize=12;html=1;exitX=0;exitY=0.5;exitDx=0;exitDy=0;entryX=1;entryY=1;entryDx=0;entryDy=0;" parent="22" source="39" target="36" edge="1">
                    <mxGeometry x="-0.2495" y="1" width="160" relative="1" as="geometry">
                        <mxPoint x="199.99999999999568" y="510" as="sourcePoint"/>
                        <mxPoint x="250.00000000000387" y="475" as="targetPoint"/>
                        <Array as="points"/>
                        <mxPoint as="offset"/>
                    </mxGeometry>
                </mxCell>
                <mxCell id="67" value="" style="edgeStyle=segmentEdgeStyle;endArrow=classic;html=1;curved=0;rounded=0;endSize=8;startSize=8;hachureGap=4;fontFamily=Architects Daughter;fontSource=https%3A%2F%2Ffonts.googleapis.com%2Fcss%3Ffamily%3DArchitects%2BDaughter;fontSize=16;exitX=1;exitY=0.5;exitDx=0;exitDy=0;entryX=0.5;entryY=0;entryDx=0;entryDy=0;" parent="22" source="68" target="5" edge="1">
                    <mxGeometry width="50" height="50" relative="1" as="geometry">
                        <mxPoint x="200" y="110" as="sourcePoint"/>
                        <mxPoint x="250" y="60" as="targetPoint"/>
                        <Array as="points">
                            <mxPoint x="210" y="55"/>
                            <mxPoint x="210" y="130"/>
                            <mxPoint x="130" y="130"/>
                        </Array>
                    </mxGeometry>
                </mxCell>
                <mxCell id="68" value="registrar curso &lt;br&gt;sin patrocinio" style="ellipse;whiteSpace=wrap;html=1;" parent="22" vertex="1">
                    <mxGeometry x="40" y="15" width="120" height="80" as="geometry"/>
                </mxCell>
                <mxCell id="69" value="registrar curso &lt;br&gt;con patrocinio" style="ellipse;whiteSpace=wrap;html=1;" parent="22" vertex="1">
                    <mxGeometry x="280" y="15" width="120" height="80" as="geometry"/>
                </mxCell>
                <mxCell id="75" value="" style="edgeStyle=segmentEdgeStyle;endArrow=classic;html=1;curved=0;rounded=0;endSize=8;startSize=8;hachureGap=4;fontFamily=Architects Daughter;fontSource=https%3A%2F%2Ffonts.googleapis.com%2Fcss%3Ffamily%3DArchitects%2BDaughter;fontSize=16;exitX=0;exitY=0.5;exitDx=0;exitDy=0;entryX=0.923;entryY=0.17;entryDx=0;entryDy=0;entryPerimeter=0;" parent="22" source="69" target="5" edge="1">
                    <mxGeometry width="50" height="50" relative="1" as="geometry">
                        <mxPoint x="210" y="65" as="sourcePoint"/>
                        <mxPoint x="180" y="170" as="targetPoint"/>
                        <Array as="points">
                            <mxPoint x="280" y="65"/>
                            <mxPoint x="260" y="65"/>
                            <mxPoint x="260" y="150"/>
                            <mxPoint x="181" y="150"/>
                        </Array>
                    </mxGeometry>
                </mxCell>
                <mxCell id="81" style="edgeStyle=none;html=1;entryX=0;entryY=0;entryDx=0;entryDy=0;exitX=1;exitY=0.5;exitDx=0;exitDy=0;" edge="1" parent="22" source="78" target="79">
                    <mxGeometry relative="1" as="geometry"/>
                </mxCell>
                <mxCell id="78" value="Consultar cursos" style="ellipse;whiteSpace=wrap;html=1;" vertex="1" parent="22">
                    <mxGeometry x="210" y="430" width="120" height="80" as="geometry"/>
                </mxCell>
                <mxCell id="79" value="Consultar programacion establecida del curso" style="ellipse;whiteSpace=wrap;html=1;" vertex="1" parent="22">
                    <mxGeometry x="340" y="510" width="160" height="100" as="geometry"/>
                </mxCell>
                <mxCell id="84" style="edgeStyle=none;html=1;entryX=0;entryY=0.5;entryDx=0;entryDy=0;fillColor=#a20025;strokeColor=#6F0000;" edge="1" parent="1" source="23" target="13">
                    <mxGeometry relative="1" as="geometry"/>
                </mxCell>
                <mxCell id="23" value="Usuario" style="shape=umlActor;verticalLabelPosition=bottom;verticalAlign=top;html=1;outlineConnect=0;fillColor=#d80073;fontColor=#ffffff;strokeColor=#A50040;" parent="1" vertex="1">
                    <mxGeometry x="105" y="520" width="30" height="60" as="geometry"/>
                </mxCell>
                <mxCell id="85" style="edgeStyle=none;html=1;fillColor=#1ba1e2;strokeColor=#006EAF;" edge="1" parent="1" source="24" target="5">
                    <mxGeometry relative="1" as="geometry"/>
                </mxCell>
                <mxCell id="86" style="edgeStyle=none;html=1;entryX=0;entryY=0;entryDx=0;entryDy=0;fillColor=#1ba1e2;strokeColor=#006EAF;" edge="1" parent="1" source="24" target="36">
                    <mxGeometry relative="1" as="geometry"/>
                </mxCell>
                <mxCell id="87" style="edgeStyle=none;html=1;fillColor=#1ba1e2;strokeColor=#006EAF;" edge="1" parent="1" source="24" target="13">
                    <mxGeometry relative="1" as="geometry"/>
                </mxCell>
                <mxCell id="24" value="Administrador" style="shape=umlActor;verticalLabelPosition=bottom;verticalAlign=top;html=1;outlineConnect=0;fillColor=#0050ef;fontColor=#ffffff;strokeColor=#001DBC;" parent="1" vertex="1">
                    <mxGeometry x="105" y="120" width="30" height="60" as="geometry"/>
                </mxCell>
                <mxCell id="82" style="edgeStyle=none;html=1;fillColor=#60a917;strokeColor=#2D7600;" edge="1" parent="1" source="76" target="13">
                    <mxGeometry relative="1" as="geometry"/>
                </mxCell>
                <mxCell id="88" style="edgeStyle=none;html=1;entryX=0;entryY=0.5;entryDx=0;entryDy=0;fillColor=#60a917;strokeColor=#2D7600;" edge="1" parent="1" source="76" target="36">
                    <mxGeometry relative="1" as="geometry"/>
                </mxCell>
                <mxCell id="89" style="edgeStyle=none;html=1;entryX=0;entryY=0.5;entryDx=0;entryDy=0;fillColor=#60a917;strokeColor=#2D7600;" edge="1" parent="1" source="76" target="5">
                    <mxGeometry relative="1" as="geometry"/>
                </mxCell>
                <mxCell id="76" value="Profesor" style="shape=umlActor;verticalLabelPosition=bottom;verticalAlign=top;html=1;outlineConnect=0;fillColor=#008a00;fontColor=#ffffff;strokeColor=#005700;" vertex="1" parent="1">
                    <mxGeometry x="105" y="320" width="30" height="60" as="geometry"/>
                </mxCell>
            </root>
        </mxGraphModel>
    </diagram>
</mxfile>
